{"title":"D-Day 2013 BRRip 720p x264 Hindi ESubs - ViZNU [P2PDL]","uid":9348791,"size":1030014368,"categoryP":"video","categoryS":"hd___movies","magnet":"?xt=urn:btih:4e82c04ab63a1653eddb6db18c7e11bca3e56aad&amp;dn=D-Day+2013+BRRip+720p+x264+Hindi+ESubs+-+ViZNU+%5BP2PDL%5D&amp;tr=udp%3A%2F%2Ftracker.openbittorrent.com%3A80&amp;tr=udp%3A%2F%2Fopen.demonii.com%3A1337&amp;tr=udp%3A%2F%2Ftracker.coppersurfer.tk%3A6969&amp;tr=udp%3A%2F%2Fexodus.desync.com%3A6969","seeders":0,"leechers":3,"uploader":"Vitamin_X","files":-1,"time":1387083952,"description":"_______ Visit us at our Semi Public Bittorrent Community ________\n  &lt;a href=&quot;\nhttp://p2pdl.com&quot; rel=&quot;nofollow&quot; target=&quot;_NEW&quot;&gt;\nhttp://p2pdl.com&lt;/a&gt;  _____________________________ &lt;a href=&quot; http://p2pdl.com&quot; rel=&quot;nofollow&quot; target=&quot;_NEW&quot;&gt; http://p2pdl.com&lt;/a&gt;\n\n\nD-Day 2013 BRRip 720p x264 Hindi ESubs - ViZNU\n\n\nGenre:  Action | Thriller \nPlot: A team of experts dispatched to bring in The Most \nWanted Man in India almost achieves the unthinkable ... \nuntil something goes horribly wrong.\nDirector: Nikhil Advani\nStars: Irrfan Khan, Rishi Kapoor, Arjun Rampal.\nRated: U/A .\n\n\nIMDb: &lt;a href=&quot;\nhttp://www.imdb.com/title/tt2385104/&quot; rel=&quot;nofollow&quot; target=&quot;_NEW&quot;&gt;\nhttp://www.imdb.com/title/tt2385104/&lt;/a&gt;\n\n\nGeneral\nFormat                         : MPEG-4\nFile size                      : 975 MiB\nDuration                       : 2h 31mn\nOverall bit rate mode          : Variable\nOverall bit rate               : 898 Kbps\n\nVideo\nFormat                         : AVC\nBit rate                       : 817 Kbps\nWidth                          : 1 280 pixels\nHeight                         : 544 pixels\nDisplay aspect ratio           : 2.35:1\nFrame rate mode                : Constant\nFrame rate                     : 24.000 fps\nBit depth                      : 10 bits\nStream size                    : 885 MiB (91%)\nWriting library                : x264 core 140 r2377 1ca7bb9\n\nAudio\nFormat                         : AAC\nBit rate                       : 79.9 Kbps\nChannel count                  : 2 channels\nChannel positions              : Front: L R\nSampling rate                  : 48.0 KHz / 24.0 KHz\nStream size                    : 86.7 MiB (9%)\nLanguage                       : Hindi\n\nSubtitle                       : Yes (English)\n\nSource                         : Blu-Ray - x264 - 720p - AC3 - [DDR]\n &lt;a href=&quot;\nhttp://someimage.com/cCOgO5j&quot; rel=&quot;nofollow&quot; target=&quot;_NEW&quot;&gt;\nhttp://someimage.com/cCOgO5j&lt;/a&gt; &lt;a href=&quot;\nhttp://someimage.com/Oog0YoT&quot; rel=&quot;nofollow&quot; target=&quot;_NEW&quot;&gt;\nhttp://someimage.com/Oog0YoT&lt;/a&gt; &lt;a href=&quot;\nhttp://someimage.com/1Cgogop&quot; rel=&quot;nofollow&quot; target=&quot;_NEW&quot;&gt;\nhttp://someimage.com/1Cgogop&lt;/a&gt; &lt;a href=&quot;\nhttp://someimage.com/7B8DaqV&quot; rel=&quot;nofollow&quot; target=&quot;_NEW&quot;&gt;\nhttp://someimage.com/7B8DaqV&lt;/a&gt; &lt;a href=&quot;\nhttp://someimage.com/MS4PkJV&quot; rel=&quot;nofollow&quot; target=&quot;_NEW&quot;&gt;\nhttp://someimage.com/MS4PkJV&lt;/a&gt; &lt;a href=&quot;\nhttp://someimage.com/ZE5DTbu&quot; rel=&quot;nofollow&quot; target=&quot;_NEW&quot;&gt;\nhttp://someimage.com/ZE5DTbu&lt;/a&gt; &lt;a href=&quot;\nhttp://someimage.com/HqdzTjO&quot; rel=&quot;nofollow&quot; target=&quot;_NEW&quot;&gt;\nhttp://someimage.com/HqdzTjO&lt;/a&gt; &lt;a href=&quot;\nhttp://someimage.com/0y3X01q&quot; rel=&quot;nofollow&quot; target=&quot;_NEW&quot;&gt;\nhttp://someimage.com/0y3X01q&lt;/a&gt;\n\n----------------------------------------------------------------------------------------------------\n\n\nEncoded using revolutionary 10bit encoding, which enables us to provide you more crispier \nand sharper images at small sizes, just make sure you follow our instructions without a fault.\nRecommend to you to use latest version of VLC player. Install K-Lite Codec Pack or shark007 codecs\nin case of any kind of problem in playback (For non-VLC Media Player users). Alternatively, install\nCore AVC codecs, the fastest decoder that there is coupled with Community Center Codec Pack and play\non Windows Media Player Classic. Check sample to be sure.\nEnjoy!\n\nEncoder Notes:Looking For Early Access To Anything You Can Provide DVDScr, R5, DVDR, BluRay, Direct\nAudio, Music Releases and Seedboxes. We require dedicated servers, so as to do more \nand fast releases of movies.\nIf You Got anything to offer please contact us at &quot;&lt;a class=&quot;__cf_email__&quot; href=&quot;/cdn-cgi/l/email-protection&quot; data-cfemail=&quot;ec9c9e8bac84999f84c28f8381&quot;&gt;[email&amp;#160;protected]&lt;/a&gt;&lt;script data-cfhash='f9e31' type=&quot;text/javascript&quot;&gt;\n/* &lt;![CDATA[ */!function(){try{var t=&quot;currentScript&quot;in document?document.currentScript:function(){for(var t=document.getElementsByTagName(&quot;script&quot;),e=t.length;e--;)if(t[e].getAttribute(&quot;data-cfhash&quot;))return t[e]}();if(t&amp;&amp;t.previousSibling){var e,r,n,i,c=t.previousSibling,a=c.getAttribute(&quot;data-cfemail&quot;);if(a){for(e=&quot;&quot;,r=parseInt(a.substr(0,2),16),n=2;a.length-n;n+=2)i=parseInt(a.substr(n,2),16)^r,e+=String.fromCharCode(i);e=document.createTextNode(e),c.parentNode.replaceChild(e,c)}t.parentNode.removeChild(t);}}catch(u){}}()/* ]]&gt; */&lt;/script&gt;&quot;.\n\n\nFacebook Fan Page:  \nSearch P2PDL on FB and don't forget to hit like!!!\n\nSupport us, please consider a donation.\n\nFor more of our team uploads visit @             &lt;a href=&quot;\nhttp://thepiratebay.se/user/ValidusVyto&quot; rel=&quot;nofollow&quot; target=&quot;_NEW&quot;&gt;\nhttp://thepiratebay.se/user/ValidusVyto&lt;/a&gt;","torrent":{"xt":"urn:btih:4e82c04ab63a1653eddb6db18c7e11bca3e56aad","amp;dn":"D-Day+2013+BRRip+720p+x264+Hindi+ESubs+-+ViZNU+%5BP2PDL%5D","amp;tr":["udp%3A%2F%2Ftracker.openbittorrent.com%3A80","udp%3A%2F%2Fopen.demonii.com%3A1337","udp%3A%2F%2Ftracker.coppersurfer.tk%3A6969","udp%3A%2F%2Fexodus.desync.com%3A6969"],"infoHash":"4e82c04ab63a1653eddb6db18c7e11bca3e56aad","infoHashBuffer":{"type":"Buffer","data":[78,130,192,74,182,58,22,83,237,219,109,177,140,126,17,188,163,229,106,173]},"announce":[],"urlList":[]}}